<?xml version="1.0" encoding="UTF-8"?>
<!DOCTYPE svg PUBLIC "-//W3C//DTD SVG 1.1//EN" "http://www.w3.org/Graphics/SVG/1.1/DTD/svg11.dtd">
<svg xmlns="http://www.w3.org/2000/svg" version="1.1" width="80px" height="80px" style="shape-rendering:geometricPrecision; text-rendering:geometricPrecision; image-rendering:optimizeQuality; fill-rule:evenodd; clip-rule:evenodd" xmlns:xlink="http://www.w3.org/1999/xlink">
<g><path style="opacity:0.992" fill="#f5f5f5" d="M 59.5,23.5 C 62.1667,23.5 64.8333,23.5 67.5,23.5C 67.6664,32.5062 67.4998,41.5062 67,50.5C 64.882,54.825 61.382,56.825 56.5,56.5C 52.03,55.5139 47.3633,55.1805 42.5,55.5C 42.5,53.1667 42.5,50.8333 42.5,48.5C 48.2124,48.687 53.8791,48.3537 59.5,47.5C 59.5,39.5 59.5,31.5 59.5,23.5 Z"/></g>
<g><path style="opacity:0.243" fill="#c5c5c6" d="M 11.5,23.5 C 11.5,26.1667 11.5,28.8333 11.5,31.5C 20.8333,31.5 30.1667,31.5 39.5,31.5C 39.5,28.8333 39.5,26.1667 39.5,23.5C 40.4767,26.2869 40.81,29.2869 40.5,32.5C 30.5,32.5 20.5,32.5 10.5,32.5C 10.19,29.2869 10.5233,26.2869 11.5,23.5 Z"/></g>
<g><path style="opacity:0.989" fill="#f8f8f8" d="M 11.5,23.5 C 20.8333,23.5 30.1667,23.5 39.5,23.5C 39.5,26.1667 39.5,28.8333 39.5,31.5C 30.1667,31.5 20.8333,31.5 11.5,31.5C 11.5,28.8333 11.5,26.1667 11.5,23.5 Z"/></g>
<g><path style="opacity:0.997" fill="#eaeaea" d="M 21.5,34.5 C 23.9946,34.9688 26.6613,34.9688 29.5,34.5C 29.5,41.8333 29.5,49.1667 29.5,56.5C 26.5525,56.7771 23.7191,56.4438 21,55.5C 20.2055,48.4197 20.3722,41.4197 21.5,34.5 Z"/></g>
<g><path style="opacity:0.47" fill="#c9c9c9" d="M 59.5,23.5 C 59.5,31.5 59.5,39.5 59.5,47.5C 53.8791,48.3537 48.2124,48.687 42.5,48.5C 42.5,50.8333 42.5,53.1667 42.5,55.5C 47.3633,55.1805 52.03,55.5139 56.5,56.5C 51.5,56.5 46.5,56.5 41.5,56.5C 41.5,53.5 41.5,50.5 41.5,47.5C 46.1785,47.6658 50.8452,47.4992 55.5,47C 56.4162,46.6258 57.2496,46.1258 58,45.5C 58.1712,37.9885 58.6712,30.6552 59.5,23.5 Z"/></g>
</svg>
